<svg width="48" height="48" viewBox="0 0 48 48" fill="none" xmlns="http://www.w3.org/2000/svg">
<path d="M0 24C0 10.7452 10.7452 0 24 0C37.2548 0 48 10.7452 48 24C48 37.2548 37.2548 48 24 48C10.7452 48 0 37.2548 0 24Z" fill="#66C0F4"/>
<path d="M28.6663 30V28.6667C28.6663 27.9594 28.3854 27.2811 27.8853 26.781C27.3852 26.281 26.7069 26 25.9997 26H21.9997C21.2924 26 20.6142 26.281 20.1141 26.781C19.614 27.2811 19.333 27.9594 19.333 28.6667V30" stroke="white" stroke-width="1.33333" stroke-linecap="round" stroke-linejoin="round"/>
<path d="M23.9997 23.3333C25.4724 23.3333 26.6663 22.1394 26.6663 20.6667C26.6663 19.1939 25.4724 18 23.9997 18C22.5269 18 21.333 19.1939 21.333 20.6667C21.333 22.1394 22.5269 23.3333 23.9997 23.3333Z" stroke="white" stroke-width="1.33333" stroke-linecap="round" stroke-linejoin="round"/>
</svg>
