<svg width="24" height="24" viewBox="0 0 24 24" fill="none" xmlns="http://www.w3.org/2000/svg">
<path d="M18.3 4H4.7C3.76112 4 3 4.7835 3 5.75V9.25C3 10.2165 3.76112 11 4.7 11H18.3C19.2389 11 20 10.2165 20 9.25V5.75C20 4.7835 19.2389 4 18.3 4Z" stroke="#A5CAF5" stroke-width="2" stroke-linecap="round" stroke-linejoin="round"/>
<path d="M18.3 14H4.7C3.76112 14 3 14.7835 3 15.75V19.25C3 20.2165 3.76112 21 4.7 21H18.3C19.2389 21 20 20.2165 20 19.25V15.75C20 14.7835 19.2389 14 18.3 14Z" stroke="#A5CAF5" stroke-width="2" stroke-linecap="round" stroke-linejoin="round"/>
<path d="M6 6H6.01" stroke="#95BEEF" stroke-width="2" stroke-linecap="round" stroke-linejoin="round"/>
<path d="M6 18H6.01" stroke="#95BEEF" stroke-width="2" stroke-linecap="round" stroke-linejoin="round"/>
</svg>
