<svg width="20" height="20" viewBox="0 0 20 20" fill="none" xmlns="http://www.w3.org/2000/svg">
<path d="M18.108 15L11.4414 3.33333C11.296 3.07684 11.0852 2.86349 10.8305 2.71506C10.5757 2.56662 10.2862 2.48842 9.99136 2.48842C9.69654 2.48842 9.40699 2.56662 9.15226 2.71506C8.89753 2.86349 8.68673 3.07684 8.54136 3.33333L1.8747 15C1.72777 15.2545 1.65072 15.5433 1.65137 15.8371C1.65202 16.1309 1.73035 16.4194 1.8784 16.6732C2.02646 16.927 2.23899 17.1372 2.49444 17.2824C2.7499 17.4276 3.0392 17.5026 3.33303 17.5H16.6664C16.9588 17.4997 17.246 17.4225 17.4991 17.2761C17.7522 17.1297 17.9624 16.9192 18.1085 16.6659C18.2545 16.4126 18.3314 16.1253 18.3313 15.8329C18.3312 15.5405 18.2542 15.2532 18.108 15Z" stroke="#FF5252" stroke-width="1.66667" stroke-linecap="round" stroke-linejoin="round"/>
<path d="M10 7.5V10.8333" stroke="#FF5252" stroke-width="1.66667" stroke-linecap="round" stroke-linejoin="round"/>
<path d="M10 14.1667H10.0083" stroke="#FF5252" stroke-width="1.66667" stroke-linecap="round" stroke-linejoin="round"/>
</svg>
