<svg width="28" height="31" viewBox="0 0 28 31" fill="none" xmlns="http://www.w3.org/2000/svg">
<path d="M25.3518 23.25L16.0185 5.16667C15.815 4.7691 15.5199 4.43841 15.1632 4.20834C14.8066 3.97827 14.4012 3.85705 13.9885 3.85705C13.5757 3.85705 13.1704 3.97827 12.8138 4.20834C12.4571 4.43841 12.162 4.7691 11.9585 5.16667L2.62516 23.25C2.41946 23.6444 2.31159 24.092 2.31251 24.5475C2.31342 25.0029 2.42307 25.45 2.63035 25.8434C2.83763 26.2369 3.13517 26.5626 3.49281 26.7877C3.85045 27.0127 4.25547 27.1291 4.66683 27.125H23.3335C23.7429 27.1245 24.1449 27.0048 24.4993 26.7779C24.8537 26.551 25.1479 26.2248 25.3524 25.8322C25.5569 25.4396 25.6645 24.9943 25.6644 24.541C25.6643 24.0878 25.5565 23.6425 25.3518 23.25Z" stroke="#DB1616" stroke-width="2" stroke-linecap="round" stroke-linejoin="round"/>
<path d="M14 11.625V16.7917" stroke="#DB1616" stroke-width="2" stroke-linecap="round" stroke-linejoin="round"/>
<path d="M14 21.9583H14.0113" stroke="#DB1616" stroke-width="2" stroke-linecap="round" stroke-linejoin="round"/>
</svg>
