<svg width="29" height="29" viewBox="0 0 29 29" fill="none" xmlns="http://www.w3.org/2000/svg">
<path d="M12.4072 25.375C12.6193 25.7424 12.9244 26.0474 13.2918 26.2595C13.6591 26.4716 14.0759 26.5832 14.5001 26.5832C14.9243 26.5832 15.341 26.4716 15.7083 26.2595C16.0757 26.0474 16.3808 25.7424 16.5929 25.375" stroke="#244770" stroke-width="1.66667" stroke-linecap="round" stroke-linejoin="round"/>
<path d="M3.94168 18.5189C3.78383 18.6919 3.67965 18.9071 3.64184 19.1382C3.60402 19.3693 3.63418 19.6065 3.72866 19.8208C3.82313 20.0351 3.97785 20.2173 4.17399 20.3453C4.37012 20.4733 4.59923 20.5415 4.83343 20.5417H24.1668C24.4009 20.5417 24.6301 20.4738 24.8263 20.346C25.0226 20.2183 25.1775 20.0363 25.2722 19.8221C25.367 19.608 25.3974 19.3709 25.3599 19.1397C25.3224 18.9086 25.2185 18.6933 25.0609 18.5201C23.4538 16.8635 21.7501 15.103 21.7501 9.66666C21.7501 7.74384 20.9863 5.89978 19.6266 4.54014C18.267 3.1805 16.4229 2.41666 14.5001 2.41666C12.5773 2.41666 10.7332 3.1805 9.37357 4.54014C8.01393 5.89978 7.25009 7.74384 7.25009 9.66666C7.25009 15.103 5.54514 16.8635 3.94168 18.5189Z" stroke="#66C0F4" stroke-width="1.66667" stroke-linecap="round" stroke-linejoin="round"/>
</svg>
